<svg width="40" height="41" viewBox="0 0 40 41" fill="none" xmlns="http://www.w3.org/2000/svg">
<circle cx="20" cy="20.5" r="20" fill="black"/>
<path d="M6.01136 26V14.3636H10.6023C11.4811 14.3636 12.2311 14.5208 12.8523 14.8352C13.4773 15.1458 13.9527 15.5871 14.2784 16.1591C14.608 16.7273 14.7727 17.3958 14.7727 18.1648C14.7727 18.9375 14.6061 19.6023 14.2727 20.1591C13.9394 20.7121 13.4564 21.1364 12.8239 21.4318C12.1951 21.7273 11.4337 21.875 10.5398 21.875H7.46591V19.8977H10.142C10.6117 19.8977 11.0019 19.8333 11.3125 19.7045C11.6231 19.5758 11.8542 19.3826 12.0057 19.125C12.161 18.8674 12.2386 18.5473 12.2386 18.1648C12.2386 17.7784 12.161 17.4527 12.0057 17.1875C11.8542 16.9223 11.6212 16.7216 11.3068 16.5852C10.9962 16.4451 10.6042 16.375 10.1307 16.375H8.47159V26H6.01136ZM12.2955 20.7045L15.1875 26H12.4716L9.64205 20.7045H12.2955ZM15.5114 26V14.3636H23.3523V16.392H17.9716V19.1648H22.9489V21.1932H17.9716V23.9716H23.375V26H15.5114ZM26.6151 14.3636L28.9616 18.3295H29.0526L31.4105 14.3636H34.1889L30.6378 20.1818L34.2685 26H31.4389L29.0526 22.0284H28.9616L26.5753 26H23.7571L27.3991 20.1818L23.8253 14.3636H26.6151Z" fill="white"/>
</svg>
